<mxfile host="65bd71144e">
    <diagram id="mfXsxFEikQ53Bg-d-s8B" name="Page-1">
        <mxGraphModel dx="716" dy="479" grid="1" gridSize="10" guides="1" tooltips="1" connect="1" arrows="1" fold="1" page="1" pageScale="1" pageWidth="827" pageHeight="1169" math="0" shadow="0">
            <root>
                <mxCell id="0"/>
                <mxCell id="1" parent="0"/>
                <mxCell id="2" value="Libro" style="swimlane;childLayout=stackLayout;horizontal=1;startSize=50;horizontalStack=0;rounded=1;fontSize=14;fontStyle=0;strokeWidth=2;resizeParent=0;resizeLast=1;shadow=0;dashed=0;align=center;arcSize=4;whiteSpace=wrap;html=1;" vertex="1" parent="1">
                    <mxGeometry x="570" y="200" width="160" height="120" as="geometry"/>
                </mxCell>
                <mxCell id="3" value="+ Código&lt;div&gt;+ Título&lt;/div&gt;&lt;div&gt;+ Autor&lt;/div&gt;&lt;div&gt;+ Año publicación&lt;/div&gt;" style="align=left;strokeColor=none;fillColor=none;spacingLeft=4;fontSize=12;verticalAlign=top;resizable=0;rotatable=0;part=1;html=1;" vertex="1" parent="2">
                    <mxGeometry y="50" width="160" height="70" as="geometry"/>
                </mxCell>
                <mxCell id="4" value="Socio" style="swimlane;childLayout=stackLayout;horizontal=1;startSize=50;horizontalStack=0;rounded=1;fontSize=14;fontStyle=0;strokeWidth=2;resizeParent=0;resizeLast=1;shadow=0;dashed=0;align=center;arcSize=4;whiteSpace=wrap;html=1;" vertex="1" parent="1">
                    <mxGeometry x="200" y="200" width="160" height="120" as="geometry"/>
                </mxCell>
                <mxCell id="5" value="+ Nº socio&lt;div&gt;&lt;font color=&quot;#000000&quot;&gt;+ Nombre&amp;nbsp;&lt;/font&gt;&lt;/div&gt;&lt;div&gt;&lt;font color=&quot;#000000&quot;&gt;+ Dirección&lt;/font&gt;&lt;/div&gt;&lt;div&gt;&lt;font color=&quot;#000000&quot;&gt;+ Teléfono&lt;br&gt;&lt;/font&gt;&lt;div&gt;&lt;br&gt;&lt;/div&gt;&lt;/div&gt;" style="align=left;strokeColor=none;fillColor=none;spacingLeft=4;fontSize=12;verticalAlign=top;resizable=0;rotatable=0;part=1;html=1;" vertex="1" parent="4">
                    <mxGeometry y="50" width="160" height="70" as="geometry"/>
                </mxCell>
                <mxCell id="8" value="Categoría" style="swimlane;childLayout=stackLayout;horizontal=1;startSize=50;horizontalStack=0;rounded=1;fontSize=14;fontStyle=0;strokeWidth=2;resizeParent=0;resizeLast=1;shadow=0;dashed=0;align=center;arcSize=4;whiteSpace=wrap;html=1;" vertex="1" parent="1">
                    <mxGeometry x="570" y="480" width="160" height="120" as="geometry"/>
                </mxCell>
                <mxCell id="9" value="+ Código&lt;div&gt;+ Nombre&lt;/div&gt;" style="align=left;strokeColor=none;fillColor=none;spacingLeft=4;fontSize=12;verticalAlign=top;resizable=0;rotatable=0;part=1;html=1;" vertex="1" parent="8">
                    <mxGeometry y="50" width="160" height="70" as="geometry"/>
                </mxCell>
                <mxCell id="10" value="" style="endArrow=classic;startArrow=classic;html=1;entryX=0;entryY=0.25;entryDx=0;entryDy=0;" edge="1" parent="1" target="3">
                    <mxGeometry width="50" height="50" relative="1" as="geometry">
                        <mxPoint x="360" y="270" as="sourcePoint"/>
                        <mxPoint x="410" y="220" as="targetPoint"/>
                    </mxGeometry>
                </mxCell>
                <mxCell id="14" style="edgeStyle=none;html=1;exitX=0.5;exitY=0;exitDx=0;exitDy=0;" edge="1" parent="1" source="11">
                    <mxGeometry relative="1" as="geometry">
                        <mxPoint x="453.74074074074065" y="200" as="targetPoint"/>
                    </mxGeometry>
                </mxCell>
                <mxCell id="16" style="edgeStyle=none;html=1;exitX=0.5;exitY=1;exitDx=0;exitDy=0;" edge="1" parent="1" source="11">
                    <mxGeometry relative="1" as="geometry">
                        <mxPoint x="453.74074074074065" y="340" as="targetPoint"/>
                    </mxGeometry>
                </mxCell>
                <mxCell id="11" value="Prestado" style="rhombus;whiteSpace=wrap;html=1;" vertex="1" parent="1">
                    <mxGeometry x="414" y="230" width="80" height="80" as="geometry"/>
                </mxCell>
                <mxCell id="12" value="N" style="text;html=1;align=center;verticalAlign=middle;resizable=0;points=[];autosize=1;strokeColor=none;fillColor=none;" vertex="1" parent="1">
                    <mxGeometry x="545" y="238" width="30" height="30" as="geometry"/>
                </mxCell>
                <mxCell id="15" value="Fecha inicio" style="text;html=1;align=center;verticalAlign=middle;resizable=0;points=[];autosize=1;strokeColor=none;fillColor=none;" vertex="1" parent="1">
                    <mxGeometry x="405" y="168" width="90" height="30" as="geometry"/>
                </mxCell>
                <mxCell id="17" value="Fecha devolución" style="text;html=1;align=center;verticalAlign=middle;resizable=0;points=[];autosize=1;strokeColor=none;fillColor=none;" vertex="1" parent="1">
                    <mxGeometry x="400" y="338" width="120" height="30" as="geometry"/>
                </mxCell>
                <mxCell id="18" value="" style="endArrow=classic;startArrow=classic;html=1;entryX=0.5;entryY=1;entryDx=0;entryDy=0;" edge="1" parent="1" target="3">
                    <mxGeometry width="50" height="50" relative="1" as="geometry">
                        <mxPoint x="650" y="480" as="sourcePoint"/>
                        <mxPoint x="700" y="430" as="targetPoint"/>
                    </mxGeometry>
                </mxCell>
                <mxCell id="19" value="Pertenece" style="rhombus;whiteSpace=wrap;html=1;" vertex="1" parent="1">
                    <mxGeometry x="610" y="350" width="80" height="80" as="geometry"/>
                </mxCell>
                <mxCell id="20" value="N" style="text;html=1;align=center;verticalAlign=middle;resizable=0;points=[];autosize=1;strokeColor=none;fillColor=none;" vertex="1" parent="1">
                    <mxGeometry x="645" y="450" width="30" height="30" as="geometry"/>
                </mxCell>
                <mxCell id="21" value="M" style="text;html=1;align=center;verticalAlign=middle;resizable=0;points=[];autosize=1;strokeColor=none;fillColor=none;" vertex="1" parent="1">
                    <mxGeometry x="645" y="320" width="30" height="30" as="geometry"/>
                </mxCell>
                <mxCell id="22" value="M" style="text;html=1;align=center;verticalAlign=middle;resizable=0;points=[];autosize=1;strokeColor=none;fillColor=none;" vertex="1" parent="1">
                    <mxGeometry x="355" y="238" width="30" height="30" as="geometry"/>
                </mxCell>
                <mxCell id="23" value="&lt;div&gt;&lt;div style=&quot;&quot;&gt;&lt;p style=&quot;margin: 0cm; font-family: &amp;quot;Times New Roman&amp;quot;, serif; color: rgb(0, 0, 0); line-height: 24px;&quot; class=&quot;MsoNormal&quot;&gt;&lt;font style=&quot;font-size: 12px;&quot;&gt;&lt;b style=&quot;&quot;&gt;&lt;span style=&quot;color: black;&quot;&gt;Socio&lt;/span&gt;&lt;/b&gt;&amp;nbsp;(&lt;span style=&quot;color: black; background: lime;&quot;&gt;Nº socio,&lt;/span&gt;&lt;span style=&quot;color: black;&quot;&gt; &lt;/span&gt;nombre, dirección, teléfono)&lt;/font&gt;&lt;/p&gt;&lt;p style=&quot;margin: 0cm; font-family: &amp;quot;Times New Roman&amp;quot;, serif; color: rgb(0, 0, 0); line-height: 24px;&quot; class=&quot;MsoNormal&quot;&gt;&lt;font style=&quot;font-size: 12px;&quot;&gt;&lt;b&gt;&lt;span style=&quot;color: black;&quot;&gt;Libro&lt;/span&gt;&lt;/b&gt;&lt;span style=&quot;color: rgb(63, 63, 63);&quot;&gt;&amp;nbsp;(&lt;/span&gt;&lt;span style=&quot;color: black; background: lime;&quot;&gt;Código,&lt;/span&gt;&lt;span style=&quot;color: black;&quot;&gt; &lt;/span&gt;&lt;span style=&quot;color: rgb(63, 63, 63);&quot;&gt;título, autor, año publicación)&lt;/span&gt;&lt;/font&gt;&lt;/p&gt;&lt;p style=&quot;margin: 0cm; font-family: &amp;quot;Times New Roman&amp;quot;, serif; color: rgb(0, 0, 0); line-height: 24px;&quot; class=&quot;MsoNormal&quot;&gt;&lt;font style=&quot;font-size: 11px;&quot;&gt;&lt;b&gt;&lt;span style=&quot;color: black;&quot;&gt;Categoría&lt;/span&gt;&lt;/b&gt;&lt;span style=&quot;color: rgb(63, 63, 63);&quot;&gt;&amp;nbsp;&lt;/span&gt;&lt;span style=&quot;color: rgb(0, 153, 0);&quot;&gt;(&lt;/span&gt;&lt;span style=&quot;color: black; background: lime;&quot;&gt;Código&lt;/span&gt;&lt;span style=&quot;color: rgb(63, 63, 63);&quot;&gt;, nombre)&lt;/span&gt;&lt;/font&gt;&lt;/p&gt;&lt;p style=&quot;margin: 0cm; font-family: &amp;quot;Times New Roman&amp;quot;, serif; color: rgb(0, 0, 0); line-height: 24px;&quot; class=&quot;MsoNormal&quot;&gt;&lt;font style=&quot;font-size: 12px;&quot;&gt;&lt;b&gt;&lt;span style=&quot;color: black;&quot;&gt;Préstamo&lt;/span&gt;&lt;/b&gt;&lt;span style=&quot;color: black;&quot;&gt;&amp;nbsp;&lt;/span&gt;&lt;span style=&quot;color: rgb(63, 63, 63);&quot;&gt;(Fecha inicio, fecha fin,&amp;nbsp;&lt;/span&gt;&lt;span style=&quot;color: black; background: lime;&quot;&gt;ID préstamo&lt;/span&gt;&lt;span style=&quot;color: rgb(63, 63, 63);&quot;&gt;, &lt;/span&gt;&lt;span style=&quot;background: yellow;&quot;&gt;ID socio,&lt;/span&gt;&lt;span style=&quot;color: rgb(63, 63, 63);&quot;&gt; &lt;span style=&quot;background: yellow;&quot;&gt;ID libro&lt;/span&gt;)&lt;/span&gt;&lt;/font&gt;&lt;/p&gt;&lt;p style=&quot;margin: 0cm; font-family: &amp;quot;Times New Roman&amp;quot;, serif; color: rgb(0, 0, 0);&quot; class=&quot;MsoNormal&quot;&gt;&lt;font style=&quot;font-size: 12px;&quot;&gt;&lt;b style=&quot;&quot;&gt;&lt;span style=&quot;color: black;&quot;&gt;LibroPerteneceCategoría&lt;/span&gt;&lt;/b&gt;&lt;span style=&quot;color: rgb(63, 63, 63);&quot;&gt; (&lt;span style=&quot;background: yellow;&quot;&gt;ID libro&lt;/span&gt;, &lt;span style=&quot;background: yellow;&quot;&gt;ID categoría&lt;/span&gt;)&lt;/span&gt;&lt;/font&gt;&lt;/p&gt;&lt;/div&gt;&lt;/div&gt;" style="text;html=1;align=left;verticalAlign=middle;whiteSpace=wrap;rounded=0;" vertex="1" parent="1">
                    <mxGeometry x="120" y="490" width="444" height="20" as="geometry"/>
                </mxCell>
            </root>
        </mxGraphModel>
    </diagram>
</mxfile>